<svg width="1200" height="630" viewBox="0 0 1200 630" fill="none" xmlns="http://www.w3.org/2000/svg">
  <defs>
    <linearGradient id="bg" x1="0" y1="0" x2="1200" y2="630" gradientUnits="userSpaceOnUse">
      <stop stop-color="#1e2234"/>
      <stop offset="0.55" stop-color="#232842"/>
      <stop offset="1" stop-color="#181e43"/>
    </linearGradient>
    <radialGradient id="glowA" cx="0" cy="0" r="1" gradientTransform="translate(240 140) rotate(48) scale(560)">
      <stop stop-color="#3b5fe0" stop-opacity="0.42"/>
      <stop offset="1" stop-color="#3b5fe0" stop-opacity="0"/>
    </radialGradient>
    <radialGradient id="glowB" cx="0" cy="0" r="1" gradientTransform="translate(1000 560) rotate(-130) scale(480)">
      <stop stop-color="#06b6d4" stop-opacity="0.3"/>
      <stop offset="1" stop-color="#06b6d4" stop-opacity="0"/>
    </radialGradient>
    <linearGradient id="ring" x1="0" y1="0" x2="1" y2="1">
      <stop stop-color="#22d3ee" stop-opacity="0.75"/>
      <stop offset="1" stop-color="#3b82f6" stop-opacity="0.2"/>
    </linearGradient>
    <linearGradient id="accent" x1="0" y1="0" x2="1" y2="0">
      <stop stop-color="#22d3ee"/>
      <stop offset="1" stop-color="#3b82f6"/>
    </linearGradient>
    <pattern id="grid" width="56" height="56" patternUnits="userSpaceOnUse">
      <path d="M56 0H0V56" fill="none" stroke="#ffffff" stroke-opacity="0.05"/>
    </pattern>
  </defs>

  <rect width="1200" height="630" fill="url(#bg)"/>
  <rect width="1200" height="630" fill="url(#grid)"/>
  <rect width="1200" height="630" fill="url(#glowA)"/>
  <rect width="1200" height="630" fill="url(#glowB)"/>

  <!-- Brand mark -->
  <g transform="translate(88 84)">
    <rect width="60" height="60" rx="16" fill="#12172b" stroke="#ffffff" stroke-opacity="0.08"/>
    <g transform="translate(10 10) scale(1.0)">
      <path d="M13 12.5 20 8l7 4.5v9L20 26l-7-4.5v-9Z" stroke="#22d3ee" stroke-width="1.6" stroke-linejoin="round" fill="none"/>
      <path d="M20 26v6M13 12.5 8 17m19-4.5L32 17" stroke="#3b82f6" stroke-width="1.4" stroke-linecap="round"/>
      <circle cx="20" cy="8" r="2.1" fill="#22d3ee"/>
      <circle cx="13" cy="12.5" r="1.6" fill="#60a5fa"/>
      <circle cx="27" cy="12.5" r="1.6" fill="#60a5fa"/>
      <circle cx="20" cy="32" r="2.1" fill="#22d3ee"/>
      <circle cx="8" cy="17" r="1.7" fill="#818cf8"/>
      <circle cx="32" cy="17" r="1.7" fill="#818cf8"/>
    </g>
  </g>

  <!-- Wordmark -->
  <text x="164" y="112" fill="#ffffff" font-family="Inter, Segoe UI, Arial, sans-serif" font-size="27" font-weight="700" letter-spacing="-0.4">Synaps AI Solutions</text>
  <text x="164" y="137" fill="#8fa3c8" font-family="Inter, Segoe UI, Arial, sans-serif" font-size="15" font-weight="500">Integrated Solutions &amp; Artificial Intelligence</text>

  <!-- Headline -->
  <text x="88" y="290" fill="#ffffff" font-family="Inter, Segoe UI, Arial, sans-serif" font-size="62" font-weight="700" letter-spacing="-1.6">Intelligence that</text>
  <text x="88" y="362" fill="#ffffff" font-family="Inter, Segoe UI, Arial, sans-serif" font-size="62" font-weight="700" letter-spacing="-1.6">executes real work.</text>
  <rect x="88" y="392" width="96" height="5" rx="2.5" fill="url(#accent)"/>

  <text x="88" y="452" fill="#c3d0e8" font-family="Inter, Segoe UI, Arial, sans-serif" font-size="21" font-weight="400">AI Solutions · AI Agents · Automation · Software</text>
  <text x="88" y="486" fill="#8fa3c8" font-family="Inter, Segoe UI, Arial, sans-serif" font-size="21" font-weight="400">System Integration · Digital Transformation</text>

  <!-- Network motif -->
  <g transform="translate(930 315)">
    <circle r="128" fill="none" stroke="url(#ring)" stroke-width="1.4" opacity="0.75"/>
    <circle r="92" fill="none" stroke="url(#ring)" stroke-width="1.2" opacity="0.6"/>
    <circle r="58" fill="none" stroke="url(#ring)" stroke-width="1" opacity="0.45"/>
    <circle r="30" fill="#22d3ee" opacity="0.14"/>
    <circle r="9" fill="#22d3ee"/>
    <circle r="3.5" fill="#ffffff"/>
    <g stroke="#22d3ee" stroke-width="0.9" opacity="0.35">
      <line x1="0" y1="0" x2="0" y2="-108"/>
      <line x1="0" y1="0" x2="94" y2="-46"/>
      <line x1="0" y1="0" x2="-58" y2="-92"/>
      <line x1="0" y1="0" x2="82" y2="88"/>
      <line x1="0" y1="0" x2="-90" y2="46"/>
      <line x1="0" y1="0" x2="0" y2="108"/>
    </g>
    <circle cx="0" cy="-108" r="7" fill="#67e8f9"/>
    <circle cx="94" cy="-46" r="6" fill="#67e8f9"/>
    <circle cx="-58" cy="-92" r="5.5" fill="#60a5fa"/>
    <circle cx="82" cy="88" r="6" fill="#60a5fa"/>
    <circle cx="-90" cy="46" r="5.5" fill="#818cf8"/>
    <circle cx="0" cy="108" r="6.5" fill="#67e8f9"/>
  </g>

  <!-- Footer rule -->
  <rect x="88" y="556" width="1024" height="1" fill="#ffffff" fill-opacity="0.1"/>
  <text x="88" y="592" fill="#6f83a8" font-family="Inter, Segoe UI, Arial, sans-serif" font-size="17" font-weight="500" letter-spacing="0.4">synapsaisolutions.com</text>
  <text x="1112" y="592" text-anchor="end" fill="#6f83a8" font-family="Inter, Segoe UI, Arial, sans-serif" font-size="17" font-weight="500">سينابس للحلول المتكاملة وتقنيات الذكاء الاصطناعي</text>
</svg>